<?xml version="1.0" encoding="UTF-8"?>
<!DOCTYPE svg PUBLIC "-//W3C//DTD SVG 1.1//EN" "http://www.w3.org/Graphics/SVG/1.1/DTD/svg11.dtd">
<svg xmlns="http://www.w3.org/2000/svg" version="1.1" width="370px" height="336px" style="shape-rendering:geometricPrecision; text-rendering:geometricPrecision; image-rendering:optimizeQuality; fill-rule:evenodd; clip-rule:evenodd" xmlns:xlink="http://www.w3.org/1999/xlink">
<g><path style="opacity:0.99" fill="#13070c" d="M 221.5,71.5 C 220.209,71.2627 219.209,71.596 218.5,72.5C 211.019,74.1483 204.019,76.9816 197.5,81C 188.18,85.2192 178.68,89.0525 169,92.5C 153.523,89.3046 138.023,86.3046 122.5,83.5C 121.876,87.005 122.876,89.8383 125.5,92C 124.227,94.216 124.227,96.3827 125.5,98.5C 127.56,108.202 129.393,117.869 131,127.5C 127.69,129.663 124.19,129.996 120.5,128.5C 119.503,120.862 119.169,113.196 119.5,105.5C 119.488,100.132 119.488,94.6321 119.5,89C 119.046,86.9701 118.38,85.1368 117.5,83.5C 109.745,81.2328 101.745,79.5661 93.5,78.5C 93.281,77.325 93.6143,76.325 94.5,75.5C 118.005,65.5538 141.339,55.2205 164.5,44.5C 189.796,49.7593 215.13,54.7593 240.5,59.5C 240.67,60.8221 240.337,61.9887 239.5,63C 233.315,65.5555 227.315,68.3888 221.5,71.5 Z"/></g>
<g><path style="opacity:0.814" fill="#010000" d="M 263.5,116.5 C 263.5,116.833 263.5,117.167 263.5,117.5C 262.833,117.5 262.5,117.833 262.5,118.5C 262.5,119.5 262.5,120.5 262.5,121.5C 263.915,136.995 265.582,152.328 267.5,167.5C 267.5,167.833 267.5,168.167 267.5,168.5C 267.5,169.5 267.5,170.5 267.5,171.5C 268.919,172.451 270.585,172.784 272.5,172.5C 275.562,200.454 278.229,228.454 280.5,256.5C 246.384,260.681 212.384,265.014 178.5,269.5C 178.329,264.804 177.829,260.137 177,255.5C 175.951,253.893 174.451,253.227 172.5,253.5C 172.688,259.286 172.022,264.953 170.5,270.5C 168.468,274.861 165.135,277.861 160.5,279.5C 159.833,279.833 159.167,280.167 158.5,280.5C 156.167,280.5 153.833,280.5 151.5,280.5C 150.167,280.5 148.833,280.5 147.5,280.5C 147.167,280.5 146.833,280.5 146.5,280.5C 145.833,280.5 145.5,280.833 145.5,281.5C 145.5,281.833 145.5,282.167 145.5,282.5C 143.645,280.08 141.145,277.414 138,274.5C 137.219,273.056 137.386,271.723 138.5,270.5C 144.411,275.164 150.411,275.498 156.5,271.5C 157.086,271.709 157.586,272.043 158,272.5C 166.587,264.696 168.253,255.029 163,243.5C 158.858,230.674 150.025,224.007 136.5,223.5C 154.459,219.332 166.125,226.332 171.5,244.5C 172.391,245.59 173.391,245.59 174.5,244.5C 174.833,243.167 175.167,241.833 175.5,240.5C 173.499,224.49 171.499,208.49 169.5,192.5C 173.534,192.328 177.534,191.828 181.5,191C 176.721,187.522 172.221,183.689 168,179.5C 167.51,178.207 167.343,176.873 167.5,175.5C 175.945,180.224 184.612,184.724 193.5,189C 199.313,190.883 204.646,189.883 209.5,186C 213.432,182.547 217.432,179.381 221.5,176.5C 221.216,178.877 221.216,181.044 221.5,183C 224.479,183.007 227.479,182.673 230.5,182C 232.892,179.007 233.892,175.841 233.5,172.5C 235.534,170.345 235.867,168.012 234.5,165.5C 234.662,163.473 234.495,161.473 234,159.5C 231.552,154.248 228.386,149.581 224.5,145.5C 224.5,145.167 224.5,144.833 224.5,144.5C 224.5,143.833 224.167,143.5 223.5,143.5C 223.665,140.482 223.498,137.482 223,134.5C 222.505,136.473 222.338,138.473 222.5,140.5C 221.5,140.5 220.5,140.5 219.5,140.5C 212.761,140.065 209.428,136.398 209.5,129.5C 209.307,126.493 210.64,124.827 213.5,124.5C 216.01,124.833 218.177,125.833 220,127.5C 220.315,126.092 219.982,124.759 219,123.5C 214.334,116.334 208.5,110.334 201.5,105.5C 202.167,104.167 203.167,103.167 204.5,102.5C 204.414,103.496 204.748,104.329 205.5,105C 207.996,106.08 210.33,107.414 212.5,109C 213.483,109.591 214.15,109.257 214.5,108C 213.035,101.566 211.869,95.0662 211,88.5C 210.751,87.376 210.251,86.376 209.5,85.5C 208.893,85.6236 208.56,85.9569 208.5,86.5C 207.076,84.4855 206.41,82.1522 206.5,79.5C 205.127,79.3433 203.793,79.51 202.5,80C 191.619,85.1262 180.619,89.9595 169.5,94.5C 156.924,91.4833 144.257,89.3166 131.5,88C 132.435,90.3806 132.768,92.8806 132.5,95.5C 130.046,96.2271 127.713,97.2271 125.5,98.5C 124.227,96.3827 124.227,94.216 125.5,92C 122.876,89.8383 121.876,87.005 122.5,83.5C 138.023,86.3046 153.523,89.3046 169,92.5C 178.68,89.0525 188.18,85.2192 197.5,81C 204.019,76.9816 211.019,74.1483 218.5,72.5C 219.791,72.7373 220.791,72.404 221.5,71.5C 231.863,70.8672 242.196,69.8672 252.5,68.5C 254.167,68.8333 255.833,69.1667 257.5,69.5C 259.001,83.8345 260.667,98.1678 262.5,112.5C 264.385,113.609 266.385,114.443 268.5,115C 266.618,115.198 264.952,115.698 263.5,116.5 Z M 231.5,115.5 C 223.093,109.709 217.927,101.709 216,91.5C 215.117,88.8976 213.617,86.7309 211.5,85C 218.879,86.9719 224.379,91.4719 228,98.5C 230.971,102.776 233.137,107.442 234.5,112.5C 233.23,113.288 232.23,114.288 231.5,115.5 Z M 262.5,181.5 C 263.5,181.5 264.5,181.5 265.5,181.5C 267.531,203.242 269.198,224.909 270.5,246.5C 259.052,247.856 247.719,249.856 236.5,252.5C 233.012,231.261 230.512,209.928 229,188.5C 240.293,186.316 251.459,183.983 262.5,181.5 Z M 218.5,189.5 C 219.833,189.5 221.167,189.5 222.5,189.5C 224.997,210.813 227.331,232.146 229.5,253.5C 214.324,255.869 199.324,258.869 184.5,262.5C 181.801,240.875 179.468,219.208 177.5,197.5C 185.314,196.077 192.98,196.744 200.5,199.5C 204.32,198.795 207.986,197.629 211.5,196C 213.754,193.557 216.087,191.39 218.5,189.5 Z M 196.5,214.5 C 203.875,213.016 208.541,215.849 210.5,223C 207.091,230.421 205.758,230.255 206.5,222.5C 204.856,222.286 203.356,222.62 202,223.5C 201.558,221.321 200.558,220.655 199,221.5C 198.667,225.167 198.333,228.833 198,232.5C 197.667,230.833 197.333,229.167 197,227.5C 191.211,223.328 191.045,218.994 196.5,214.5 Z M 203.5,232.5 C 204.773,233.077 204.773,233.743 203.5,234.5C 202.537,234.03 202.537,233.363 203.5,232.5 Z M 196.5,244.5 C 196.56,243.957 196.893,243.624 197.5,243.5C 198.795,244.098 200.128,244.598 201.5,245C 199.604,247.01 197.937,246.843 196.5,244.5 Z"/></g>
<g><path style="opacity:0.993" fill="#12050a" d="M 208.5,86.5 C 209.484,92.5561 208.151,97.8894 204.5,102.5C 203.167,103.167 202.167,104.167 201.5,105.5C 184.451,115.833 166.451,118.5 147.5,113.5C 145.491,111.935 143.157,110.935 140.5,110.5C 134.381,107.372 131.714,102.372 132.5,95.5C 132.768,92.8806 132.435,90.3806 131.5,88C 144.257,89.3166 156.924,91.4833 169.5,94.5C 180.619,89.9595 191.619,85.1262 202.5,80C 203.793,79.51 205.127,79.3433 206.5,79.5C 206.41,82.1522 207.076,84.4855 208.5,86.5 Z"/></g>
<g><path style="opacity:0.895" fill="#000000" d="M 117.5,83.5 C 118.38,85.1368 119.046,86.9701 119.5,89C 119.488,94.6321 119.488,100.132 119.5,105.5C 117.99,106.836 116.323,108.003 114.5,109C 114.957,109.414 115.291,109.914 115.5,110.5C 110.123,116.934 110.29,123.268 116,129.5C 120.517,135.196 126.017,139.529 132.5,142.5C 137.828,140.337 141.662,136.671 144,131.5C 144.945,124.068 143.778,117.068 140.5,110.5C 143.157,110.935 145.491,111.935 147.5,113.5C 148.763,118.126 149.929,122.792 151,127.5C 153.729,144.438 146.729,151.105 130,147.5C 129.98,155.574 130.813,163.574 132.5,171.5C 136.852,172.519 139.519,175.186 140.5,179.5C 144.043,179.872 146.21,181.872 147,185.5C 150.941,195.854 149.275,205.187 142,213.5C 136.191,219.398 130.191,225.065 124,230.5C 119.65,235.628 118.65,241.294 121,247.5C 125.059,251.056 128.559,255.056 131.5,259.5C 124.269,261.247 116.935,262.247 109.5,262.5C 102.587,204.193 95.9199,145.86 89.5,87.5C 99.0082,86.4804 108.342,85.1471 117.5,83.5 Z"/></g>
<g><path style="opacity:0.004" fill="#fe0000" d="M 267.5,111.5 C 268.833,112.167 268.833,112.167 267.5,111.5 Z"/></g>
<g><path style="opacity:0.004" fill="#fe0000" d="M 270.5,115.5 C 271.833,116.167 271.833,116.167 270.5,115.5 Z"/></g>
<g><path style="opacity:0.004" fill="#000000" d="M 269.5,119.5 C 270.833,119.5 271.5,120.167 271.5,121.5C 271.5,120.167 270.833,119.5 269.5,119.5 Z"/></g>
<g><path style="opacity:0.004" fill="#000000" d="M 276.5,122.5 C 276.897,121.475 277.563,121.308 278.5,122C 277.906,122.464 277.239,122.631 276.5,122.5 Z"/></g>
<g><path style="opacity:0.004" fill="#e40a03" d="M 274.5,123.5 C 276.179,123.892 277.846,124.392 279.5,125C 278.668,126.909 279.001,128.742 280.5,130.5C 279.833,130.5 279.167,130.5 278.5,130.5C 278.5,129.833 278.167,129.5 277.5,129.5C 277.19,128.262 276.69,128.262 276,129.5C 275.517,128.552 275.351,127.552 275.5,126.5C 277.85,125.89 277.517,125.556 274.5,125.5C 274.5,124.833 274.5,124.167 274.5,123.5 Z"/></g>
<g><path style="opacity:0.004" fill="#fe0000" d="M 280.5,126.5 C 281.833,127.167 281.833,127.167 280.5,126.5 Z"/></g>
<g><path style="opacity:0.76" fill="#000000" d="M 175.5,130.5 C 178.777,130.216 181.943,130.549 185,131.5C 186.29,136.11 186.624,140.777 186,145.5C 181.816,147.845 177.316,149.511 172.5,150.5C 168.332,149.056 166.332,146.056 166.5,141.5C 166.987,135.687 169.987,132.021 175.5,130.5 Z"/></g>
<g><path style="opacity:0.004" fill="#fe0000" d="M 281.5,132.5 C 282.773,133.077 282.773,133.743 281.5,134.5C 280.537,134.03 280.537,133.363 281.5,132.5 Z"/></g>
<g><path style="opacity:0.004" fill="#fe0000" d="M 283.5,134.5 C 284.833,135.167 284.833,135.167 283.5,134.5 Z"/></g>
<g><path style="opacity:0.015" fill="#8b0404" d="M 263.5,116.5 C 265.833,116.5 268.167,116.5 270.5,116.5C 270.611,117.117 270.944,117.617 271.5,118C 270.584,118.278 269.918,118.778 269.5,119.5C 269.5,120.833 270.167,121.5 271.5,121.5C 274.837,119.646 275.837,120.313 274.5,123.5C 274.5,124.167 274.5,124.833 274.5,125.5C 273.443,126.206 273.776,126.539 275.5,126.5C 275.351,127.552 275.517,128.552 276,129.5C 276.69,128.262 277.19,128.262 277.5,129.5C 278.167,129.5 278.5,129.833 278.5,130.5C 279.167,130.5 279.833,130.5 280.5,130.5C 280.938,130.435 281.272,130.601 281.5,131C 280.5,131.833 279.5,132.667 278.5,133.5C 279.056,134.663 279.389,135.663 279.5,136.5C 280.29,137.401 281.29,138.068 282.5,138.5C 282.611,139.117 282.944,139.617 283.5,140C 282.376,140.249 281.376,140.749 280.5,141.5C 281.612,142.265 282.279,143.265 282.5,144.5C 282.5,144.833 282.5,145.167 282.5,145.5C 282.167,145.5 281.833,145.5 281.5,145.5C 280.923,144.227 280.257,144.227 279.5,145.5C 279.957,146.298 280.624,146.631 281.5,146.5C 282.263,147.268 283.263,147.768 284.5,148C 283.263,148.232 282.263,148.732 281.5,149.5C 281.5,150.167 281.5,150.833 281.5,151.5C 281.5,152.167 281.5,152.833 281.5,153.5C 280.5,153.5 279.5,153.5 278.5,153.5C 278.567,154.959 278.234,156.292 277.5,157.5C 276.833,157.5 276.5,157.833 276.5,158.5C 275.167,159.833 273.833,159.833 272.5,158.5C 272.528,156.418 271.861,154.584 270.5,153C 272.047,152.667 273.38,153.167 274.5,154.5C 274.833,154.167 275.167,153.833 275.5,153.5C 271.864,151.793 271.864,150.626 275.5,150C 268.897,148.089 268.897,147.422 275.5,148C 274.167,147.333 272.833,146.667 271.5,146C 273.658,144.688 273.991,143.022 272.5,141C 273.094,140.536 273.761,140.369 274.5,140.5C 274.679,138.636 274.179,136.636 273,134.5C 271.612,135.554 270.112,135.72 268.5,135C 270.032,134.3 271.032,133.134 271.5,131.5C 269.726,130.813 268.059,129.98 266.5,129C 267.449,128.383 268.282,128.549 269,129.5C 269.667,128.5 269.667,127.5 269,126.5C 266.609,127.602 266.109,126.936 267.5,124.5C 266.23,123.712 265.23,122.712 264.5,121.5C 264.167,120.167 263.833,120.167 263.5,121.5C 263.167,121.5 262.833,121.5 262.5,121.5C 262.5,120.5 262.5,119.5 262.5,118.5C 263.167,118.5 263.5,118.167 263.5,117.5C 263.5,117.167 263.5,116.833 263.5,116.5 Z"/></g>
<g><path style="opacity:0.004" fill="#1e0800" d="M 279.5,136.5 C 280.873,136.343 282.207,136.51 283.5,137C 282.944,137.383 282.611,137.883 282.5,138.5C 281.29,138.068 280.29,137.401 279.5,136.5 Z"/></g>
<g><path style="opacity:0.055" fill="#860019" d="M 262.5,121.5 C 262.833,121.5 263.167,121.5 263.5,121.5C 263.833,121.5 264.167,121.5 264.5,121.5C 265.23,122.712 266.23,123.712 267.5,124.5C 266.109,126.936 266.609,127.602 269,126.5C 269.667,127.5 269.667,128.5 269,129.5C 268.282,128.549 267.449,128.383 266.5,129C 268.059,129.98 269.726,130.813 271.5,131.5C 271.032,133.134 270.032,134.3 268.5,135C 270.112,135.72 271.612,135.554 273,134.5C 274.179,136.636 274.679,138.636 274.5,140.5C 273.761,140.369 273.094,140.536 272.5,141C 273.991,143.022 273.658,144.688 271.5,146C 272.833,146.667 274.167,147.333 275.5,148C 268.897,147.422 268.897,148.089 275.5,150C 271.864,150.626 271.864,151.793 275.5,153.5C 275.167,153.833 274.833,154.167 274.5,154.5C 273.38,153.167 272.047,152.667 270.5,153C 271.861,154.584 272.528,156.418 272.5,158.5C 271.167,158.833 271.167,159.167 272.5,159.5C 273.263,160.268 274.263,160.768 275.5,161C 273.494,161.083 272.494,161.583 272.5,162.5C 273.167,163.833 273.833,163.833 274.5,162.5C 275.5,162.5 276.5,162.5 277.5,162.5C 278.239,162.369 278.906,162.536 279.5,163C 278.263,163.232 277.263,163.732 276.5,164.5C 275.5,164.5 274.5,164.5 273.5,164.5C 273.5,165.5 273.5,166.5 273.5,167.5C 273.5,167.833 273.5,168.167 273.5,168.5C 271.983,168.489 270.816,167.823 270,166.5C 269.329,167.252 268.496,167.586 267.5,167.5C 265.582,152.328 263.915,136.995 262.5,121.5 Z"/></g>
<g><path style="opacity:0.004" fill="#d20005" d="M 223.5,143.5 C 221.958,142.699 220.292,142.366 218.5,142.5C 218.833,141.833 219.167,141.167 219.5,140.5C 220.5,140.5 221.5,140.5 222.5,140.5C 222.338,138.473 222.505,136.473 223,134.5C 223.498,137.482 223.665,140.482 223.5,143.5 Z"/></g>
<g><path style="opacity:0.004" fill="#000000" d="M 281.5,145.5 C 281.5,145.833 281.5,146.167 281.5,146.5C 280.624,146.631 279.957,146.298 279.5,145.5C 280.257,144.227 280.923,144.227 281.5,145.5 Z"/></g>
<g><path style="opacity:0.004" fill="#000000" d="M 282.5,144.5 C 285.105,146.17 285.105,146.504 282.5,145.5C 282.5,145.167 282.5,144.833 282.5,144.5 Z"/></g>
<g><path style="opacity:0.004" fill="#fe0000" d="M 216.5,150.5 C 215.833,149.167 215.833,149.167 216.5,150.5 Z"/></g>
<g><path style="opacity:0.004" fill="#3f1408" d="M 281.5,149.5 C 285.508,151.441 285.508,152.108 281.5,151.5C 281.5,150.833 281.5,150.167 281.5,149.5 Z"/></g>
<g><path style="opacity:0.004" fill="#e60d03" d="M 218.5,147.5 C 219.167,147.5 219.833,147.5 220.5,147.5C 220.5,147.833 220.5,148.167 220.5,148.5C 221.653,149.313 221.653,150.313 220.5,151.5C 221.989,151.533 223.322,152.033 224.5,153C 224,153.5 223.5,154 223,154.5C 221.855,153.316 220.688,153.316 219.5,154.5C 218.853,152.859 217.853,151.526 216.5,150.5C 217.401,149.71 218.068,148.71 218.5,147.5 Z"/></g>
<g><path style="opacity:0.027" fill="#860210" d="M 218.5,142.5 C 220.292,142.366 221.958,142.699 223.5,143.5C 224.167,143.5 224.5,143.833 224.5,144.5C 223.167,144.833 223.167,145.167 224.5,145.5C 228.386,149.581 231.552,154.248 234,159.5C 234.495,161.473 234.662,163.473 234.5,165.5C 235.867,168.012 235.534,170.345 233.5,172.5C 232.737,171.732 231.737,171.232 230.5,171C 231.696,170.346 231.696,169.846 230.5,169.5C 229.817,169.863 229.15,170.196 228.5,170.5C 229.19,166.442 229.19,162.442 228.5,158.5C 225.572,157.516 222.572,157.183 219.5,157.5C 220.833,156.5 220.833,155.5 219.5,154.5C 220.688,153.316 221.855,153.316 223,154.5C 223.5,154 224,153.5 224.5,153C 223.322,152.033 221.989,151.533 220.5,151.5C 221.653,150.313 221.653,149.313 220.5,148.5C 220.5,148.167 220.5,147.833 220.5,147.5C 219.833,147.5 219.167,147.5 218.5,147.5C 218.178,145.525 218.178,143.858 218.5,142.5 Z M 234.5,165.5 C 234.483,167.028 233.816,167.528 232.5,167C 233.044,166.283 233.711,165.783 234.5,165.5 Z"/></g>
<g><path style="opacity:0.758" fill="#010000" d="M 219.5,157.5 C 222.572,157.183 225.572,157.516 228.5,158.5C 229.19,162.442 229.19,166.442 228.5,170.5C 227.883,170.389 227.383,170.056 227,169.5C 224.123,174.741 219.956,175.907 214.5,173C 212.246,171.623 210.08,170.123 208,168.5C 207.231,165.901 207.398,163.401 208.5,161C 212.032,159.368 215.699,158.201 219.5,157.5 Z"/></g>
<g><path style="opacity:0.004" fill="#fe0000" d="M 281.5,159.5 C 281.897,158.475 282.563,158.308 283.5,159C 282.906,159.464 282.239,159.631 281.5,159.5 Z"/></g>
<g><path style="opacity:0.008" fill="#b90202" d="M 281.5,153.5 C 282.289,153.783 282.956,154.283 283.5,155C 281.792,157.043 279.792,158.71 277.5,160C 278.5,160.333 279.5,160.667 280.5,161C 279.263,161.232 278.263,161.732 277.5,162.5C 276.5,162.5 275.5,162.5 274.5,162.5C 273.833,162.5 273.167,162.5 272.5,162.5C 272.494,161.583 273.494,161.083 275.5,161C 274.263,160.768 273.263,160.268 272.5,159.5C 272.5,159.167 272.5,158.833 272.5,158.5C 273.833,159.833 275.167,159.833 276.5,158.5C 277.167,158.5 277.5,158.167 277.5,157.5C 278.234,156.292 278.567,154.959 278.5,153.5C 279.5,153.5 280.5,153.5 281.5,153.5 Z"/></g>
<g><path style="opacity:0.004" fill="#000000" d="M 276.5,164.5 C 277.239,164.369 277.906,164.536 278.5,165C 276.751,165.785 275.084,166.618 273.5,167.5C 273.5,166.5 273.5,165.5 273.5,164.5C 274.5,164.5 275.5,164.5 276.5,164.5 Z"/></g>
<g><path style="opacity:0.008" fill="#880d05" d="M 267.5,168.5 C 276.442,170.674 276.442,171.674 267.5,171.5C 267.5,170.5 267.5,169.5 267.5,168.5 Z"/></g>
<g><path style="opacity:0.004" fill="#000000" d="M 273.5,168.5 C 274.239,168.369 274.906,168.536 275.5,169C 274.563,169.692 273.897,169.525 273.5,168.5 Z"/></g>
<g><path style="opacity:0.004" fill="#000000" d="M 229.5,174.5 C 229.897,173.475 230.563,173.308 231.5,174C 230.906,174.464 230.239,174.631 229.5,174.5 Z"/></g>
<g><path style="opacity:0.102" fill="#000000" d="M 260.5,190.5 C 263.275,190.834 263.941,192.167 262.5,194.5C 260.889,193.68 260.222,192.346 260.5,190.5 Z"/></g>
<g><path style="opacity:0.066" fill="#000000" d="M 262.5,202.5 C 263.649,202.791 264.316,203.624 264.5,205C 264.167,205.833 263.833,206.667 263.5,207.5C 262.548,205.955 262.215,204.288 262.5,202.5 Z"/></g>
<g><path style="opacity:0.675" fill="#0f0106" d="M 208.5,205.5 C 209.478,205.811 210.145,206.478 210.5,207.5C 209.754,208.736 209.421,210.07 209.5,211.5C 208.5,211.5 207.5,211.5 206.5,211.5C 206.604,209.297 207.27,207.297 208.5,205.5 Z"/></g>
<g><path style="opacity:0.624" fill="#100106" d="M 187.5,211.5 C 187.719,212.675 187.386,213.675 186.5,214.5C 185.019,213.52 183.685,212.353 182.5,211C 184.273,209.198 185.94,209.365 187.5,211.5 Z"/></g>
<g><path style="opacity:0.759" fill="#100105" d="M 187.5,211.5 C 187.5,210.5 187.5,209.5 187.5,208.5C 190.47,208.746 191.803,210.412 191.5,213.5C 189.801,213.473 188.467,212.806 187.5,211.5 Z"/></g>
<g><path style="opacity:0.757" fill="#0f0106" d="M 213.5,221.5 C 213.155,226.525 210.989,230.525 207,233.5C 206.51,234.793 206.343,236.127 206.5,237.5C 202.865,236.886 199.198,236.552 195.5,236.5C 194.065,230.962 192.065,225.629 189.5,220.5C 190.936,215.896 193.936,212.73 198.5,211C 197.231,208.861 197.231,206.695 198.5,204.5C 199.086,204.709 199.586,205.043 200,205.5C 200.495,207.473 200.662,209.473 200.5,211.5C 207.166,211.836 211.499,215.169 213.5,221.5 Z M 196.5,214.5 C 191.045,218.994 191.211,223.328 197,227.5C 197.333,229.167 197.667,230.833 198,232.5C 198.333,228.833 198.667,225.167 199,221.5C 200.558,220.655 201.558,221.321 202,223.5C 203.356,222.62 204.856,222.286 206.5,222.5C 205.758,230.255 207.091,230.421 210.5,223C 208.541,215.849 203.875,213.016 196.5,214.5 Z M 203.5,232.5 C 202.537,233.363 202.537,234.03 203.5,234.5C 204.773,233.743 204.773,233.077 203.5,232.5 Z"/></g>
<g><path style="opacity:0.715" fill="#0f0106" d="M 213.5,221.5 C 215.663,216.448 216.83,216.448 217,221.5C 215.855,222.684 214.688,222.684 213.5,221.5 Z"/></g>
<g><path style="opacity:0.033" fill="#000000" d="M 265.5,241.5 C 267.337,241.639 267.67,242.306 266.5,243.5C 265.702,243.043 265.369,242.376 265.5,241.5 Z"/></g>
<g><path style="opacity:0.705" fill="#0f0106" d="M 195.5,236.5 C 199.128,237.944 202.961,238.944 207,239.5C 207.24,245.318 204.406,248.651 198.5,249.5C 196.971,249.471 195.804,248.804 195,247.5C 193.555,244.289 193.055,241.123 193.5,238C 193.836,236.97 194.503,236.47 195.5,236.5 Z M 196.5,244.5 C 197.937,246.843 199.604,247.01 201.5,245C 200.128,244.598 198.795,244.098 197.5,243.5C 196.893,243.624 196.56,243.957 196.5,244.5 Z"/></g>
<g><path style="opacity:0.057" fill="#000000" d="M 200.5,253.5 C 202.337,253.639 202.67,254.306 201.5,255.5C 200.702,255.043 200.369,254.376 200.5,253.5 Z"/></g>
<g><path style="opacity:0.004" fill="#fe0000" d="M 153.5,270.5 C 154.833,271.167 154.833,271.167 153.5,270.5 Z"/></g>
<g><path style="opacity:0.004" fill="#000000" d="M 192.5,282.5 C 192.897,281.475 193.563,281.308 194.5,282C 193.906,282.464 193.239,282.631 192.5,282.5 Z"/></g>
<g><path style="opacity:0.004" fill="#ba1808" d="M 197.5,286.5 C 197.511,283.999 198.178,283.832 199.5,286C 198.906,286.464 198.239,286.631 197.5,286.5 Z"/></g>
<g><path style="opacity:0.004" fill="#000000" d="M 139.5,286.5 C 139.897,285.475 140.563,285.308 141.5,286C 140.906,286.464 140.239,286.631 139.5,286.5 Z"/></g>
<g><path style="opacity:0.004" fill="#a41a0a" d="M 195.5,287.5 C 195.842,286.662 196.508,286.328 197.5,286.5C 197.158,287.338 196.492,287.672 195.5,287.5 Z"/></g>
<g><path style="opacity:0.012" fill="#960303" d="M 146.5,280.5 C 146.833,280.5 147.167,280.5 147.5,280.5C 148.671,281.345 150.005,282.011 151.5,282.5C 151.5,281.833 151.5,281.167 151.5,280.5C 153.833,280.5 156.167,280.5 158.5,280.5C 158.5,280.833 158.5,281.167 158.5,281.5C 157.508,281.328 156.842,281.662 156.5,282.5C 155.711,282.783 155.044,283.283 154.5,284C 161.216,287.148 160.882,288.148 153.5,287C 152.344,291.101 151.177,291.268 150,287.5C 149.212,289.165 148.878,290.831 149,292.5C 150.77,291.724 152.603,291.89 154.5,293C 153.975,293.692 153.308,294.192 152.5,294.5C 150.632,294.054 148.799,293.721 147,293.5C 146.536,294.094 146.369,294.761 146.5,295.5C 145.209,295.737 144.209,295.404 143.5,294.5C 142.348,295.625 141.348,295.625 140.5,294.5C 141.167,293.833 141.833,293.167 142.5,292.5C 142.5,291.833 142.5,291.167 142.5,290.5C 143.833,290.167 143.833,289.833 142.5,289.5C 143.347,288.034 144.68,287.2 146.5,287C 143.72,286.63 141.72,285.63 140.5,284C 143.016,283.909 144.682,283.409 145.5,282.5C 145.5,282.167 145.5,281.833 145.5,281.5C 146.167,281.5 146.5,281.167 146.5,280.5 Z M 147.5,280.5 C 148.833,280.5 150.167,280.5 151.5,280.5C 151.5,281.167 151.5,281.833 151.5,282.5C 150.005,282.011 148.671,281.345 147.5,280.5 Z M 145.5,290.5 C 146.077,289.227 146.743,289.227 147.5,290.5C 147.03,291.463 146.363,291.463 145.5,290.5 Z"/></g>
<g><path style="opacity:0.004" fill="#a41a0a" d="M 137.5,289.5 C 137.897,288.475 138.563,288.308 139.5,289C 138.906,289.464 138.239,289.631 137.5,289.5 Z"/></g>
<g><path style="opacity:0.004" fill="#000000" d="M 140.5,290.5 C 140.842,289.662 141.508,289.328 142.5,289.5C 142.5,289.833 142.5,290.167 142.5,290.5C 142.5,291.167 142.5,291.833 142.5,292.5C 142.167,292.5 141.833,292.5 141.5,292.5C 141.672,291.508 141.338,290.842 140.5,290.5 Z"/></g>
<g><path style="opacity:0.063" fill="#840019" d="M 160.5,279.5 C 160.369,280.376 160.702,281.043 161.5,281.5C 163.5,280.167 165.5,280.167 167.5,281.5C 167.833,280.833 168.167,280.167 168.5,279.5C 169.719,280.263 170.719,281.263 171.5,282.5C 173.335,279.599 175.669,278.933 178.5,280.5C 178.833,280.5 179.167,280.5 179.5,280.5C 178.653,281.966 177.32,282.8 175.5,283C 177.557,283.305 179.557,283.305 181.5,283C 182.26,284.441 182.926,285.941 183.5,287.5C 185.383,289.417 188.05,290.917 191.5,292C 188.833,292.667 188.833,293.333 191.5,294C 189.5,294.333 187.5,294.667 185.5,295C 186.737,295.232 187.737,295.732 188.5,296.5C 185.881,296.232 183.381,296.565 181,297.5C 179.971,303.95 178.471,310.284 176.5,316.5C 174.314,317.221 172.147,317.887 170,318.5C 169.51,317.207 169.343,315.873 169.5,314.5C 171.5,314.5 173.5,314.5 175.5,314.5C 175.5,312.833 175.5,311.167 175.5,309.5C 173.396,309.799 171.396,309.466 169.5,308.5C 171.743,307.526 174.076,307.192 176.5,307.5C 176.5,303.833 176.5,300.167 176.5,296.5C 170.167,296.5 163.833,296.5 157.5,296.5C 157.66,298.199 157.494,299.866 157,301.5C 155.924,298.921 154.091,297.254 151.5,296.5C 149.958,295.699 148.292,295.366 146.5,295.5C 146.369,294.761 146.536,294.094 147,293.5C 148.799,293.721 150.632,294.054 152.5,294.5C 153.308,294.192 153.975,293.692 154.5,293C 152.603,291.89 150.77,291.724 149,292.5C 148.878,290.831 149.212,289.165 150,287.5C 151.177,291.268 152.344,291.101 153.5,287C 160.882,288.148 161.216,287.148 154.5,284C 155.044,283.283 155.711,282.783 156.5,282.5C 157.925,284.031 158.591,283.698 158.5,281.5C 158.5,281.167 158.5,280.833 158.5,280.5C 159.167,280.167 159.833,279.833 160.5,279.5 Z"/></g>
<g><path style="opacity:0.004" fill="#fe0000" d="M 140.5,290.5 C 141.338,290.842 141.672,291.508 141.5,292.5C 139.895,291.994 139.561,291.327 140.5,290.5 Z"/></g>
<g><path style="opacity:0.014" fill="#8f0404" d="M 170.5,270.5 C 171.222,270.918 171.722,271.584 172,272.5C 174.044,271.994 176.044,271.661 178,271.5C 179.301,271.639 180.134,272.305 180.5,273.5C 181.931,273.881 182.764,274.881 183,276.5C 183.308,275.692 183.808,275.025 184.5,274.5C 187.01,276.511 189.343,278.678 191.5,281C 190.748,281.671 190.414,282.504 190.5,283.5C 192.942,283.354 193.609,284.187 192.5,286C 193.244,287.039 194.244,287.539 195.5,287.5C 195.369,288.376 195.702,289.043 196.5,289.5C 197.451,288.674 198.451,288.508 199.5,289C 198.542,290.147 198.875,291.147 200.5,292C 199.376,292.249 198.376,292.749 197.5,293.5C 197.624,294.107 197.957,294.44 198.5,294.5C 198.443,295.609 198.11,296.609 197.5,297.5C 197.167,297.5 196.833,297.5 196.5,297.5C 193.873,296.908 191.206,296.575 188.5,296.5C 187.737,295.732 186.737,295.232 185.5,295C 187.5,294.667 189.5,294.333 191.5,294C 188.833,293.333 188.833,292.667 191.5,292C 188.05,290.917 185.383,289.417 183.5,287.5C 182.926,285.941 182.26,284.441 181.5,283C 179.557,283.305 177.557,283.305 175.5,283C 177.32,282.8 178.653,281.966 179.5,280.5C 179.167,279.167 178.833,279.167 178.5,280.5C 175.669,278.933 173.335,279.599 171.5,282.5C 170.719,281.263 169.719,280.263 168.5,279.5C 168.167,280.167 167.833,280.833 167.5,281.5C 165.5,280.167 163.5,280.167 161.5,281.5C 160.702,281.043 160.369,280.376 160.5,279.5C 165.135,277.861 168.468,274.861 170.5,270.5 Z M 180.5,273.5 C 181.625,274.652 181.625,275.652 180.5,276.5C 179.375,275.348 179.375,274.348 180.5,273.5 Z M 173.5,273.5 C 175.983,273.73 176.483,274.397 175,275.5C 173.97,275.164 173.47,274.497 173.5,273.5 Z"/></g>
<g><path style="opacity:0.012" fill="#bd0001" d="M 185.5,279.5 C 187.179,280.916 188.846,282.25 190.5,283.5C 190.5,284.5 190.5,285.5 190.5,286.5C 189.5,286.5 188.5,286.5 187.5,286.5C 187.5,285.833 187.167,285.5 186.5,285.5C 185.032,284.221 184.365,282.554 184.5,280.5C 185.167,280.5 185.5,280.167 185.5,279.5 Z"/></g>
<g><path style="opacity:0.819" fill="#010000" d="M 140.5,294.5 C 141.348,295.625 142.348,295.625 143.5,294.5C 144.209,295.404 145.209,295.737 146.5,295.5C 148.292,295.366 149.958,295.699 151.5,296.5C 152.794,298.328 153.794,300.328 154.5,302.5C 153.325,302.281 152.325,302.614 151.5,303.5C 151.929,306.147 153.262,308.147 155.5,309.5C 154.754,310.736 154.421,312.07 154.5,313.5C 154.196,314.15 153.863,314.817 153.5,315.5C 155.226,317.228 156.559,319.228 157.5,321.5C 155.985,323.082 154.319,324.416 152.5,325.5C 149.739,324.08 146.739,323.413 143.5,323.5C 140.5,323.5 137.5,323.5 134.5,323.5C 134.135,318.342 134.135,313.342 134.5,308.5C 129.379,306.896 126.046,308.729 124.5,314C 125.167,315 125.833,316 126.5,317C 128.81,317.497 131.143,317.663 133.5,317.5C 133.326,319.861 132.993,322.194 132.5,324.5C 127.223,325.069 122.223,324.235 117.5,322C 115.106,320.048 113.606,317.548 113,314.5C 112.502,317.482 112.335,320.482 112.5,323.5C 108.5,323.5 104.5,323.5 100.5,323.5C 100.829,316.759 100.329,310.092 99,303.5C 96.5988,309.945 94.4321,316.445 92.5,323C 89.7728,323.818 87.1062,323.652 84.5,322.5C 83.8195,320.111 82.9862,317.778 82,315.5C 82.0607,323.179 78.5607,325.513 71.5,322.5C 69.0268,313.749 66.3602,305.082 63.5,296.5C 72.5,297.833 81.5,297.833 90.5,296.5C 90.2616,304.237 91.2616,304.404 93.5,297C 100.158,296.5 106.825,296.334 113.5,296.5C 113.34,298.199 113.506,299.866 114,301.5C 115.873,299.291 118.04,297.458 120.5,296C 127.2,295.714 133.867,295.214 140.5,294.5 Z"/></g>
<g><path style="opacity:0.815" fill="#000000" d="M 198.5,294.5 C 209.58,296.444 220.913,297.111 232.5,296.5C 231.96,300.132 231.627,303.799 231.5,307.5C 231.299,311.373 231.966,315.039 233.5,318.5C 234.497,311.197 234.831,303.863 234.5,296.5C 243.492,295.726 252.492,295.559 261.5,296C 264.057,296.685 265.891,298.185 267,300.5C 267.49,299.207 267.657,297.873 267.5,296.5C 273.833,296.5 280.167,296.5 286.5,296.5C 286.343,297.873 286.51,299.207 287,300.5C 287.833,298.333 289.333,296.833 291.5,296C 295.821,295.501 300.154,295.334 304.5,295.5C 304.5,299.5 304.5,303.5 304.5,307.5C 303.022,307.238 301.689,307.571 300.5,308.5C 306.753,320.187 303.42,325.353 290.5,324C 289.577,321.959 289.244,319.792 289.5,317.5C 290.978,317.762 292.311,317.429 293.5,316.5C 291.403,312.233 288.236,309.233 284,307.5C 282.833,307.667 281.667,307.833 280.5,308C 282.577,308.192 284.577,308.692 286.5,309.5C 285.098,310.842 285.431,311.676 287.5,312C 286.028,314.996 283.862,315.829 281,314.5C 280.517,315.448 280.351,316.448 280.5,317.5C 282.5,317.5 284.5,317.5 286.5,317.5C 286.643,319.262 286.309,320.929 285.5,322.5C 279.872,323.495 274.206,323.829 268.5,323.5C 268.666,318.821 268.499,314.155 268,309.5C 266.953,311.762 265.787,313.929 264.5,316C 265.5,317.667 266.5,319.333 267.5,321C 265.707,324.135 263.04,325.469 259.5,325C 258.299,324.097 257.465,322.931 257,321.5C 253.164,323.389 248.997,324.055 244.5,323.5C 244.666,317.491 244.499,311.491 244,305.5C 243.5,311.825 243.334,318.158 243.5,324.5C 237.075,324.87 230.742,324.37 224.5,323C 221.425,318.691 219.759,313.858 219.5,308.5C 217.955,307.548 216.288,307.215 214.5,307.5C 214.608,312.87 214.275,318.203 213.5,323.5C 210.167,323.5 206.833,323.5 203.5,323.5C 203.123,319.847 203.123,316.347 203.5,313C 203.316,311.624 202.649,310.791 201.5,310.5C 201.5,309.833 201.167,309.5 200.5,309.5C 200.5,308.833 200.833,308.5 201.5,308.5C 202.833,308.167 202.833,307.833 201.5,307.5C 200.391,307.557 199.391,307.89 198.5,308.5C 198.5,307.833 198.167,307.5 197.5,307.5C 197.5,306.5 197.5,305.5 197.5,304.5C 197.737,303.209 197.404,302.209 196.5,301.5C 196.5,301.167 196.5,300.833 196.5,300.5C 197.404,299.791 197.737,298.791 197.5,297.5C 198.11,296.609 198.443,295.609 198.5,294.5 Z M 256.5,307.5 C 258.97,308.36 259.137,309.694 257,311.5C 256.51,310.207 256.343,308.873 256.5,307.5 Z"/></g>
<g><path style="opacity:0.004" fill="#fe0000" d="M 200.5,295.5 C 200.897,294.475 201.563,294.308 202.5,295C 201.906,295.464 201.239,295.631 200.5,295.5 Z"/></g>
<g><path style="opacity:0.979" fill="#0e0001" d="M 151.5,296.5 C 154.091,297.254 155.924,298.921 157,301.5C 157.494,299.866 157.66,298.199 157.5,296.5C 163.833,296.5 170.167,296.5 176.5,296.5C 176.5,300.167 176.5,303.833 176.5,307.5C 174.076,307.192 171.743,307.526 169.5,308.5C 171.396,309.466 173.396,309.799 175.5,309.5C 175.5,311.167 175.5,312.833 175.5,314.5C 173.5,314.5 171.5,314.5 169.5,314.5C 169.343,315.873 169.51,317.207 170,318.5C 172.147,317.887 174.314,317.221 176.5,316.5C 178.471,310.284 179.971,303.95 181,297.5C 183.381,296.565 185.881,296.232 188.5,296.5C 191.206,296.575 193.873,296.908 196.5,297.5C 196.5,298.167 196.167,298.5 195.5,298.5C 194.624,298.369 193.957,298.702 193.5,299.5C 194.365,302.662 195.365,305.662 196.5,308.5C 196.5,309.167 196.833,309.5 197.5,309.5C 197.5,309.833 197.5,310.167 197.5,310.5C 196.224,311.386 196.224,312.386 197.5,313.5C 198.107,313.376 198.44,313.043 198.5,312.5C 199.873,312.343 201.207,312.51 202.5,313C 200.956,313.29 199.623,313.956 198.5,315C 199.738,314.923 200.738,315.089 201.5,315.5C 200.271,316.281 198.938,316.781 197.5,317C 200.037,319.201 200.037,321.368 197.5,323.5C 197.167,323.5 196.833,323.5 196.5,323.5C 195.508,323.328 194.842,323.662 194.5,324.5C 193.833,324.5 193.167,324.5 192.5,324.5C 192.5,323.833 192.167,323.5 191.5,323.5C 189.738,323.643 188.071,323.309 186.5,322.5C 185.478,322.855 184.811,323.522 184.5,324.5C 184.167,324.5 183.833,324.5 183.5,324.5C 175.252,323.531 166.918,323.198 158.5,323.5C 158.423,319.123 157.923,314.79 157,310.5C 156.148,311.571 155.315,312.571 154.5,313.5C 154.421,312.07 154.754,310.736 155.5,309.5C 153.262,308.147 151.929,306.147 151.5,303.5C 152.325,302.614 153.325,302.281 154.5,302.5C 153.794,300.328 152.794,298.328 151.5,296.5 Z"/></g>
<g><path style="opacity:0.012" fill="#980502" d="M 195.5,298.5 C 195.833,299.167 196.167,299.833 196.5,300.5C 196.5,300.833 196.5,301.167 196.5,301.5C 196.062,301.435 195.728,301.601 195.5,302C 196.066,302.995 196.733,303.828 197.5,304.5C 197.5,305.5 197.5,306.5 197.5,307.5C 197.5,307.833 197.5,308.167 197.5,308.5C 197.167,308.5 196.833,308.5 196.5,308.5C 195.365,305.662 194.365,302.662 193.5,299.5C 193.957,298.702 194.624,298.369 195.5,298.5 Z"/></g>
<g><path style="opacity:0.02" fill="#870026" d="M 146.5,307.5 C 148.97,308.36 149.137,309.694 147,311.5C 146.51,310.207 146.343,308.873 146.5,307.5 Z"/></g>
<g><path style="opacity:0.012" fill="#ce0000" d="M 201.5,307.5 C 201.5,307.833 201.5,308.167 201.5,308.5C 200.833,308.5 200.5,308.833 200.5,309.5C 199.833,309.5 199.167,309.5 198.5,309.5C 198.167,309.5 197.833,309.5 197.5,309.5C 197.5,309.167 197.5,308.833 197.5,308.5C 197.833,308.5 198.167,308.5 198.5,308.5C 199.391,307.89 200.391,307.557 201.5,307.5 Z"/></g>
<g><path style="opacity:0.008" fill="#940d05" d="M 198.5,309.5 C 199.167,309.5 199.833,309.5 200.5,309.5C 201.167,309.5 201.5,309.833 201.5,310.5C 200.5,311.167 199.5,311.833 198.5,312.5C 198.44,313.043 198.107,313.376 197.5,313.5C 196.224,312.386 196.224,311.386 197.5,310.5C 198.167,310.5 198.5,310.167 198.5,309.5 Z"/></g>
<g><path style="opacity:0.034" fill="#820018" d="M 183.5,324.5 C 183.94,327.38 184.94,330.046 186.5,332.5C 186.494,333.417 187.494,333.917 189.5,334C 188.263,334.232 187.263,334.732 186.5,335.5C 183.833,335.5 181.167,335.5 178.5,335.5C 180.031,334.075 179.698,333.409 177.5,333.5C 175.442,332.067 173.108,331.4 170.5,331.5C 169.721,327.11 167.387,325.943 163.5,328C 163.833,328.333 164.167,328.667 164.5,329C 162.555,328.872 160.722,329.038 159,329.5C 156.95,327.141 154.783,325.807 152.5,325.5C 154.319,324.416 155.985,323.082 157.5,321.5C 156.559,319.228 155.226,317.228 153.5,315.5C 153.863,314.817 154.196,314.15 154.5,313.5C 155.315,312.571 156.148,311.571 157,310.5C 157.923,314.79 158.423,319.123 158.5,323.5C 166.918,323.198 175.252,323.531 183.5,324.5 Z"/></g>
<g><path style="opacity:0.02" fill="#6e0108" d="M 191.5,323.5 C 191.5,324.167 191.5,324.833 191.5,325.5C 190.833,325.5 190.167,325.5 189.5,325.5C 189.19,324.262 188.69,324.262 188,325.5C 188.617,327.095 188.284,328.428 187,329.5C 185.256,328.351 185.089,327.017 186.5,325.5C 186.043,324.702 185.376,324.369 184.5,324.5C 184.811,323.522 185.478,322.855 186.5,322.5C 188.071,323.309 189.738,323.643 191.5,323.5 Z"/></g>
<g><path style="opacity:0.004" fill="#fe0000" d="M 196.5,323.5 C 196.833,323.5 197.167,323.5 197.5,323.5C 197.918,324.222 198.584,324.722 199.5,325C 197.843,325.725 196.843,325.225 196.5,323.5 Z"/></g>
<g><path style="opacity:0.004" fill="#bb1206" d="M 192.5,324.5 C 193.167,324.5 193.833,324.5 194.5,324.5C 194.179,326.048 193.179,326.715 191.5,326.5C 191.5,326.167 191.5,325.833 191.5,325.5C 192.167,325.5 192.5,325.167 192.5,324.5 Z"/></g>
<g><path style="opacity:0.004" fill="#fe0000" d="M 140.5,327.5 C 141.251,326.427 142.251,326.26 143.5,327C 142.552,327.483 141.552,327.649 140.5,327.5 Z"/></g>
<g><path style="opacity:0.014" fill="#8f0506" d="M 143.5,323.5 C 146.739,323.413 149.739,324.08 152.5,325.5C 154.783,325.807 156.95,327.141 159,329.5C 160.722,329.038 162.555,328.872 164.5,329C 164.167,328.667 163.833,328.333 163.5,328C 167.387,325.943 169.721,327.11 170.5,331.5C 173.108,331.4 175.442,332.067 177.5,333.5C 177.167,334.167 176.833,334.833 176.5,335.5C 168.5,335.5 160.5,335.5 152.5,335.5C 150.779,333.306 148.445,332.139 145.5,332C 146.5,331.667 147.5,331.333 148.5,331C 146.744,330.798 145.078,330.298 143.5,329.5C 144.167,329.167 144.833,328.833 145.5,328.5C 146.055,326.607 145.388,324.94 143.5,323.5 Z"/></g>
<g><path style="opacity:0.013" fill="#ab0202" d="M 183.5,324.5 C 183.833,324.5 184.167,324.5 184.5,324.5C 185.376,324.369 186.043,324.702 186.5,325.5C 185.089,327.017 185.256,328.351 187,329.5C 188.284,328.428 188.617,327.095 188,325.5C 188.69,324.262 189.19,324.262 189.5,325.5C 189.842,326.338 190.508,326.672 191.5,326.5C 191.953,327.458 192.619,328.292 193.5,329C 192.906,329.464 192.239,329.631 191.5,329.5C 186.36,330.75 186.36,331.416 191.5,331.5C 190.708,332.518 189.041,332.851 186.5,332.5C 184.94,330.046 183.94,327.38 183.5,324.5 Z"/></g>
<g><path style="opacity:0.004" fill="#000000" d="M 191.5,329.5 C 191.5,330.167 191.5,330.833 191.5,331.5C 186.36,331.416 186.36,330.75 191.5,329.5 Z"/></g>
</svg>
