<?xml version="1.0" encoding="UTF-8"?>
<svg xmlns="http://www.w3.org/2000/svg" xmlns:xlink="http://www.w3.org/1999/xlink" width="667px" height="300px" viewBox="0 0 667 300" version="1.1">
<g id="surface1">
<path style=" stroke:none;fill-rule:nonzero;fill:rgb(0%,0%,0%);fill-opacity:1;" d="M 524.261719 77.398438 C 511.320312 83.21875 525.0625 96.058594 540.136719 92.398438 C 542.671875 91.800781 546.941406 87.71875 546.941406 85.921875 C 546.941406 83.640625 543.871094 80.21875 540.003906 78.300781 C 535.199219 75.78125 528.664062 75.421875 524.261719 77.398438 Z M 524.261719 77.398438 "/>
<path style=" stroke:none;fill-rule:nonzero;fill:rgb(0%,0%,0%);fill-opacity:1;" d="M 493.578125 84.421875 C 487.578125 87.839844 493.3125 95.28125 503.585938 97.441406 C 509.589844 98.761719 511.855469 98.640625 515.589844 96.898438 C 522.261719 93.960938 518.390625 87.179688 508.386719 84.179688 C 502.25 82.320312 497.183594 82.378906 493.578125 84.421875 Z M 493.578125 84.421875 "/>
<path style=" stroke:none;fill-rule:nonzero;fill:rgb(0%,0%,0%);fill-opacity:1;" d="M 555.609375 87.238281 C 549.609375 91.320312 550.675781 97.140625 557.878906 99.898438 C 562.949219 101.820312 564.949219 101.761719 569.484375 99.71875 C 576.019531 96.839844 576.019531 91.078125 569.484375 87.359375 C 565.75 85.261719 558.546875 85.199219 555.609375 87.238281 Z M 555.609375 87.238281 "/>
<path style=" stroke:none;fill-rule:nonzero;fill:rgb(0%,0%,0%);fill-opacity:1;" d="M 480.90625 98.398438 C 479.171875 99.300781 478.773438 100.199219 479.171875 102.300781 C 480.105469 105.839844 485.574219 109.019531 493.3125 110.578125 C 498.78125 111.660156 499.851562 111.660156 502.785156 110.941406 C 509.320312 109.261719 509.722656 105.898438 503.984375 102 C 497.449219 97.621094 485.976562 95.878906 480.90625 98.398438 Z M 480.90625 98.398438 "/>
<path style=" stroke:none;fill-rule:nonzero;fill:rgb(0%,0%,0%);fill-opacity:1;" d="M 536.132812 100.738281 C 529.332031 101.339844 522.660156 103.261719 519.59375 105.539062 C 518.125 106.621094 513.988281 109.5 510.386719 111.960938 C 503.984375 116.398438 503.851562 116.398438 505.851562 118.621094 C 507.988281 121.261719 514.925781 123.601562 520.527344 123.601562 L 524.394531 123.601562 L 523.996094 131.519531 C 523.59375 139.261719 523.460938 139.5 520.660156 139.679688 C 518.925781 139.800781 517.59375 140.28125 517.59375 140.761719 C 517.59375 141.421875 521.195312 141.601562 538.269531 141.601562 L 558.945312 141.601562 L 558.945312 138.601562 C 558.945312 135.238281 555.878906 134.339844 554.277344 137.21875 C 553.078125 139.441406 551.609375 139.800781 542.671875 139.800781 L 534.933594 139.800781 L 534.933594 130.800781 L 543.605469 130.800781 C 550.273438 130.800781 552.277344 130.621094 552.277344 129.898438 C 552.277344 129.300781 550.140625 129 544.003906 128.878906 L 535.601562 128.699219 L 535.601562 122.761719 L 541.871094 121.921875 C 549.339844 120.839844 552.277344 121.261719 552.277344 123.300781 C 552.277344 124.378906 552.941406 124.800781 554.945312 124.800781 C 557.210938 124.800781 557.613281 124.378906 557.613281 122.101562 C 557.613281 119.699219 558.011719 119.339844 562.015625 118.441406 C 581.492188 113.941406 582.957031 107.039062 564.816406 104.640625 C 560.8125 104.160156 555.078125 103.078125 551.875 102.300781 C 544.671875 100.5 542.003906 100.261719 536.132812 100.738281 Z M 536.132812 100.738281 "/>
<path style=" stroke:none;fill-rule:nonzero;fill:rgb(0%,0%,0%);fill-opacity:1;" d="M 191.027344 118.800781 C 183.691406 119.28125 178.757812 120.960938 175.152344 124.199219 C 170.085938 128.578125 171.417969 135.238281 177.957031 138.480469 C 182.492188 140.761719 187.425781 141.601562 196.5 141.601562 C 205.96875 141.601562 212.105469 140.160156 212.105469 137.941406 C 212.105469 136.5 211.304688 136.5 207.171875 138 C 202.234375 139.738281 193.296875 139.621094 188.496094 137.761719 C 184.890625 136.320312 184.757812 136.140625 184.757812 130.019531 C 184.757812 124.140625 185.027344 123.601562 188.09375 122.101562 C 190.628906 120.898438 192.363281 120.601562 195.964844 120.71875 C 200.367188 120.898438 202.367188 121.738281 204.503906 124.5 C 204.769531 124.859375 206.371094 124.800781 208.503906 124.378906 C 212.507812 123.539062 213.441406 121.261719 210.238281 120.058594 C 207.570312 119.039062 197.566406 118.378906 191.027344 118.800781 Z M 191.027344 118.800781 "/>
<path style=" stroke:none;fill-rule:nonzero;fill:rgb(0%,0%,0%);fill-opacity:1;" d="M 64.03125 119.640625 C 64.03125 120.121094 65.097656 120.601562 66.300781 120.71875 C 68.035156 120.839844 70.300781 123.480469 75.371094 131.101562 L 82.175781 141.300781 L 91.246094 141.300781 L 96.046875 134.28125 C 98.582031 130.378906 100.984375 127.199219 101.382812 127.199219 C 101.785156 127.199219 103.519531 129 105.253906 131.21875 C 113.65625 141.898438 113.257812 141.601562 117.390625 141.601562 C 119.925781 141.601562 121.527344 141.238281 121.925781 140.519531 C 122.328125 139.980469 124.730469 135.839844 127.398438 131.398438 C 133 121.738281 134.066406 120.601562 136.734375 120.601562 C 137.800781 120.601562 138.734375 120.179688 138.734375 119.699219 C 138.734375 118.980469 136.867188 118.800781 130.066406 118.800781 C 123.261719 118.800781 121.394531 118.980469 121.394531 119.699219 C 121.394531 120.179688 122.328125 120.601562 123.394531 120.601562 C 126.996094 120.601562 126.996094 122.21875 123.394531 129.238281 L 119.660156 136.140625 L 114.058594 128.761719 C 104.183594 115.980469 103.519531 115.921875 96.046875 126.539062 C 93.113281 130.738281 90.710938 134.578125 90.710938 135.058594 C 90.710938 136.980469 88.3125 134.28125 84.84375 128.578125 C 80.972656 122.339844 80.972656 120.601562 84.710938 120.601562 C 85.777344 120.601562 86.710938 120.179688 86.710938 119.699219 C 86.710938 118.980469 84.574219 118.800781 75.371094 118.800781 C 66.433594 118.800781 64.03125 118.980469 64.03125 119.640625 Z M 64.03125 119.640625 "/>
<path style=" stroke:none;fill-rule:nonzero;fill:rgb(0%,0%,0%);fill-opacity:1;" d="M 141.402344 119.640625 C 141.402344 120.121094 142.738281 120.601562 144.472656 120.71875 C 147.40625 120.898438 147.40625 121.019531 147.40625 130.199219 C 147.40625 139.378906 147.40625 139.5 144.472656 139.679688 C 142.738281 139.800781 141.402344 140.28125 141.402344 140.761719 C 141.402344 141.421875 143.9375 141.601562 153.410156 141.601562 C 163.148438 141.601562 165.414062 141.421875 165.414062 140.699219 C 165.414062 140.21875 164.214844 139.800781 162.882812 139.800781 C 159.144531 139.800781 158.746094 138.71875 158.746094 130.199219 C 158.746094 121.679688 159.144531 120.601562 162.882812 120.601562 C 164.214844 120.601562 165.414062 120.179688 165.414062 119.699219 C 165.414062 118.980469 163.148438 118.800781 153.410156 118.800781 C 143.9375 118.800781 141.402344 118.980469 141.402344 119.640625 Z M 141.402344 119.640625 "/>
<path style=" stroke:none;fill-rule:nonzero;fill:rgb(0%,0%,0%);fill-opacity:1;" d="M 217.441406 119.640625 C 217.441406 120.121094 218.777344 120.601562 220.511719 120.71875 C 223.445312 120.898438 223.445312 121.019531 223.445312 130.199219 C 223.445312 139.378906 223.445312 139.5 220.511719 139.679688 C 218.777344 139.800781 217.441406 140.28125 217.441406 140.761719 C 217.441406 141.421875 219.976562 141.601562 229.449219 141.601562 C 238.917969 141.601562 241.453125 141.421875 241.453125 140.761719 C 241.453125 140.28125 240.121094 139.800781 238.519531 139.679688 C 235.71875 139.5 235.449219 139.199219 235.449219 135.601562 C 235.449219 132.421875 235.851562 131.699219 237.71875 131.519531 C 239.320312 131.398438 241.1875 132.300781 243.855469 134.820312 C 249.992188 140.160156 251.992188 141.058594 259.195312 141.421875 C 266.667969 141.839844 267.066406 141.300781 261.195312 138.480469 C 258.796875 137.28125 255.328125 135.121094 253.59375 133.621094 L 250.523438 130.859375 L 254.527344 129.300781 C 262.265625 126.359375 261.0625 121.859375 252.125 119.878906 C 245.855469 118.441406 217.441406 118.320312 217.441406 119.640625 Z M 245.457031 121.800781 C 248.65625 123.238281 248.925781 126.421875 245.988281 128.28125 C 244.523438 129.179688 242.65625 129.601562 239.320312 129.601562 L 234.785156 129.601562 L 234.785156 120.601562 L 238.785156 120.601562 C 241.054688 120.601562 243.988281 121.140625 245.457031 121.800781 Z M 245.457031 121.800781 "/>
<path style=" stroke:none;fill-rule:nonzero;fill:rgb(0%,0%,0%);fill-opacity:1;" d="M 268.132812 119.699219 C 268.132812 120.179688 269.335938 120.601562 270.667969 120.601562 C 274.402344 120.601562 274.804688 121.679688 274.804688 130.199219 C 274.804688 138.71875 274.402344 139.800781 270.667969 139.800781 C 269.335938 139.800781 268.132812 140.21875 268.132812 140.699219 C 268.132812 141.480469 271.335938 141.601562 288.8125 141.601562 L 309.488281 141.601562 L 309.488281 138.539062 C 309.488281 135.960938 309.085938 135.539062 307.21875 135.71875 C 305.886719 135.839844 304.6875 136.441406 304.417969 137.101562 C 303.484375 139.320312 301.351562 139.800781 293.347656 139.800781 L 285.476562 139.800781 L 285.476562 130.800781 L 293.480469 130.800781 C 299.75 130.800781 301.484375 130.621094 301.484375 129.898438 C 301.484375 129.179688 299.75 129 293.480469 129 L 285.476562 129 L 285.476562 120.539062 L 293.078125 120.71875 C 300.417969 120.898438 300.683594 120.960938 301.75 122.820312 C 303.617188 126 306.820312 125.339844 306.820312 121.800781 L 306.820312 118.800781 L 287.476562 118.800781 C 271.203125 118.800781 268.132812 118.921875 268.132812 119.699219 Z M 268.132812 119.699219 "/>
<path style=" stroke:none;fill-rule:nonzero;fill:rgb(0%,0%,0%);fill-opacity:1;" d="M 333.765625 119.820312 C 333.367188 120.421875 329.496094 124.921875 325.496094 129.898438 C 319.894531 136.679688 317.226562 139.019531 315.089844 139.5 C 309.085938 140.699219 311.753906 141.601562 321.492188 141.601562 C 328.699219 141.601562 330.832031 141.421875 330.832031 140.761719 C 330.832031 140.28125 329.496094 139.800781 327.898438 139.679688 C 324.5625 139.5 324.296875 138.300781 326.695312 135.421875 C 328.03125 133.921875 328.699219 133.800781 336.167969 133.800781 C 344.304688 133.800781 344.304688 133.800781 346.304688 135.960938 C 348.574219 138.359375 348.039062 139.800781 344.839844 139.800781 C 343.773438 139.800781 342.839844 140.21875 342.839844 140.699219 C 342.839844 141.421875 344.972656 141.601562 354.175781 141.601562 C 363.382812 141.601562 365.515625 141.421875 365.515625 140.699219 C 365.515625 140.21875 364.582031 139.800781 363.515625 139.800781 C 360.980469 139.800781 359.78125 138.78125 352.308594 129.179688 C 348.707031 124.621094 345.371094 120.421875 344.839844 119.820312 C 344.171875 119.160156 342.4375 118.800781 339.371094 118.800781 C 336.167969 118.800781 334.433594 119.160156 333.765625 119.820312 Z M 342.839844 131.519531 C 342.839844 131.820312 339.769531 132 336.035156 132 C 331.097656 132 329.363281 131.761719 329.765625 131.21875 C 330.164062 130.859375 331.765625 128.578125 333.5 126.300781 L 336.566406 122.101562 L 339.636719 126.601562 C 341.371094 129.058594 342.839844 131.28125 342.839844 131.519531 Z M 342.839844 131.519531 "/>
<path style=" stroke:none;fill-rule:nonzero;fill:rgb(0%,0%,0%);fill-opacity:1;" d="M 366.851562 121.800781 C 366.851562 124.078125 367.382812 124.800781 368.851562 124.800781 C 369.917969 124.800781 370.851562 124.261719 370.851562 123.660156 C 370.851562 121.980469 374.453125 120.601562 378.988281 120.601562 L 382.992188 120.601562 L 382.589844 130.019531 C 382.191406 139.320312 382.191406 139.5 379.257812 139.679688 C 377.523438 139.800781 376.1875 140.28125 376.1875 140.761719 C 376.1875 141.421875 378.722656 141.601562 388.996094 141.601562 C 398.597656 141.601562 401.667969 141.421875 401.265625 140.820312 C 400.867188 140.460938 399.398438 140.039062 397.796875 139.921875 C 394.863281 139.738281 394.863281 139.5 394.863281 130.140625 L 394.863281 120.601562 L 398.597656 120.601562 C 403.402344 120.601562 405.003906 121.140625 406.070312 123.121094 C 406.46875 124.078125 407.804688 124.800781 408.871094 124.800781 C 410.339844 124.800781 410.871094 124.019531 410.871094 121.800781 L 410.871094 118.800781 L 366.851562 118.800781 Z M 366.851562 121.800781 "/>
<path style=" stroke:none;fill-rule:nonzero;fill:rgb(0%,0%,0%);fill-opacity:1;" d="M 413.539062 119.640625 C 413.539062 120.121094 414.875 120.601562 416.609375 120.71875 C 419.410156 120.898438 419.542969 121.140625 420.210938 129.421875 C 420.878906 137.761719 421.011719 138 424.480469 139.621094 C 427.546875 141 429.546875 141.300781 436.886719 141.480469 C 446.625 141.78125 452.757812 140.941406 455.292969 138.960938 C 456.226562 138.238281 457.160156 134.21875 457.5625 129.300781 C 458.230469 121.140625 458.363281 120.898438 461.296875 120.71875 C 462.898438 120.601562 464.230469 120.121094 464.230469 119.640625 C 464.230469 118.980469 462.097656 118.800781 454.894531 118.800781 C 447.691406 118.800781 445.554688 118.980469 445.554688 119.640625 C 445.554688 120.121094 446.890625 120.601562 448.625 120.71875 C 451.425781 120.898438 451.558594 121.140625 451.960938 128.878906 C 452.359375 136.621094 452.226562 136.859375 449.023438 138.300781 C 445.023438 140.101562 439.152344 140.28125 434.75 138.660156 C 431.683594 137.519531 431.550781 137.21875 431.550781 129.179688 C 431.550781 121.019531 431.550781 120.898438 434.617188 120.71875 C 436.21875 120.601562 437.550781 120.121094 437.550781 119.640625 C 437.550781 118.980469 435.015625 118.800781 425.546875 118.800781 C 416.074219 118.800781 413.539062 118.980469 413.539062 119.640625 Z M 413.539062 119.640625 "/>
<path style=" stroke:none;fill-rule:nonzero;fill:rgb(0%,0%,0%);fill-opacity:1;" d="M 467.167969 119.519531 C 467.566406 119.941406 469.035156 120.359375 470.636719 120.480469 C 473.570312 120.660156 473.570312 120.898438 473.570312 130.261719 L 473.570312 139.800781 L 470.234375 139.800781 C 468.101562 139.800781 466.898438 140.160156 466.898438 140.699219 C 466.898438 141.421875 469.167969 141.601562 479.707031 141.601562 C 489.3125 141.601562 492.378906 141.421875 491.980469 140.820312 C 491.578125 140.460938 490.113281 140.039062 488.511719 139.921875 C 485.84375 139.738281 485.574219 139.378906 485.574219 135.539062 C 485.574219 130.019531 487.84375 130.078125 494.78125 135.78125 C 500.515625 140.460938 503.851562 141.601562 511.589844 141.601562 C 517.058594 141.601562 517.59375 140.941406 513.054688 139.621094 C 508.789062 138.300781 499.183594 130.679688 501.585938 130.320312 C 509.722656 129.058594 511.988281 123.421875 505.453125 120.660156 C 501.851562 119.160156 497.183594 118.800781 480.640625 118.800781 C 470.101562 118.800781 466.765625 118.980469 467.167969 119.519531 Z M 495.179688 121.621094 C 496.648438 122.21875 497.582031 123.421875 497.582031 124.921875 C 497.582031 128.398438 495.714844 129.601562 490.246094 129.601562 L 485.574219 129.601562 L 485.574219 125.101562 C 485.574219 120.601562 485.574219 120.601562 489.179688 120.601562 C 491.046875 120.601562 493.847656 121.019531 495.179688 121.621094 Z M 495.179688 121.621094 "/>
<path style=" stroke:none;fill-rule:nonzero;fill:rgb(0%,0%,0%);fill-opacity:1;" d="M 570.152344 120.839844 C 566.683594 122.398438 565.617188 123.421875 565.617188 124.980469 C 565.617188 127.800781 568.949219 129.480469 579.757812 132 C 590.429688 134.460938 593.230469 136.5 588.960938 138.601562 C 583.757812 141.179688 572.285156 139.261719 572.285156 135.78125 C 572.285156 134.101562 569.484375 133.980469 566.550781 135.480469 C 560.679688 138.421875 565.882812 141.121094 578.15625 141.480469 C 589.09375 141.78125 595.765625 140.460938 598.566406 137.519531 C 602.300781 133.5 598.164062 130.621094 584.691406 127.738281 C 578.421875 126.359375 576.15625 125.578125 575.488281 124.378906 C 574.152344 122.160156 576.421875 120.898438 581.757812 120.898438 C 585.359375 120.898438 586.558594 121.261719 588.292969 122.699219 C 589.359375 123.660156 590.429688 124.621094 590.5625 124.738281 C 590.828125 124.859375 592.429688 124.679688 594.296875 124.320312 C 596.566406 123.839844 597.632812 123.121094 597.632812 122.160156 C 597.632812 119.878906 592.964844 118.800781 583.226562 118.800781 C 575.355469 118.800781 574.421875 118.921875 570.152344 120.839844 Z M 570.152344 120.839844 "/>
<path style=" stroke:none;fill-rule:nonzero;fill:rgb(0%,0%,0%);fill-opacity:1;" d="M 158.878906 144.71875 C 159.8125 145.5 161.546875 146.820312 162.882812 147.71875 C 164.347656 148.621094 165.414062 150.300781 165.414062 151.738281 C 165.414062 153.539062 165.949219 154.199219 167.417969 154.199219 C 168.882812 154.199219 169.417969 153.539062 169.417969 151.921875 C 169.417969 150.421875 170.753906 148.679688 173.421875 146.820312 C 177.820312 143.699219 178.089844 143.398438 176.089844 143.398438 C 175.421875 143.398438 173.152344 144.480469 171.152344 145.859375 L 167.683594 148.261719 L 164.214844 145.859375 C 160.480469 143.21875 156.078125 142.320312 158.878906 144.71875 Z M 158.878906 144.71875 "/>
<path style=" stroke:none;fill-rule:nonzero;fill:rgb(0%,0%,0%);fill-opacity:1;" d="M 183.957031 144.300781 C 176.753906 146.039062 175.953125 150.71875 182.359375 153 C 194.230469 157.140625 208.105469 149.941406 197.566406 145.140625 C 193.296875 143.21875 189.292969 142.980469 183.957031 144.300781 Z M 196.097656 146.398438 C 199.699219 148.019531 199.433594 149.761719 195.429688 151.5 C 191.828125 153.179688 190.496094 153.300781 186.359375 152.339844 C 182.625 151.441406 181.425781 150.660156 181.425781 148.859375 C 181.425781 145.558594 190.761719 144 196.097656 146.398438 Z M 196.097656 146.398438 "/>
<path style=" stroke:none;fill-rule:nonzero;fill:rgb(0%,0%,0%);fill-opacity:1;" d="M 204.101562 147.839844 C 204.101562 151.800781 204.503906 152.460938 207.035156 153.238281 C 208.636719 153.78125 211.304688 154.199219 212.773438 154.199219 C 214.242188 154.199219 216.910156 153.78125 218.507812 153.238281 C 221.042969 152.460938 221.445312 151.800781 221.445312 147.839844 C 221.445312 145.261719 220.910156 143.398438 220.109375 143.398438 C 219.308594 143.398438 218.777344 145.078125 218.777344 147.238281 C 218.777344 151.140625 216.910156 153 212.773438 153 C 208.636719 153 206.769531 151.140625 206.769531 147.238281 C 206.769531 145.078125 206.238281 143.398438 205.4375 143.398438 C 204.636719 143.398438 204.101562 145.261719 204.101562 147.839844 Z M 204.101562 147.839844 "/>
<path style=" stroke:none;fill-rule:nonzero;fill:rgb(0%,0%,0%);fill-opacity:1;" d="M 224.113281 148.800781 C 224.113281 151.980469 224.644531 154.199219 225.445312 154.199219 C 226.246094 154.199219 226.78125 152.28125 226.78125 149.640625 L 226.78125 145.140625 L 231.183594 145.320312 C 234.785156 145.441406 235.449219 145.738281 235.449219 147 C 235.449219 148.199219 234.652344 148.558594 231.847656 148.679688 C 229.714844 148.800781 228.113281 149.039062 228.113281 149.160156 C 228.113281 149.878906 236.917969 154.199219 238.519531 154.199219 C 240.921875 154.199219 240.519531 153.539062 237.183594 151.980469 L 234.382812 150.601562 L 237.320312 149.160156 C 243.1875 146.339844 238.386719 143.398438 227.980469 143.398438 L 224.113281 143.398438 Z M 224.113281 148.800781 "/>
<path style=" stroke:none;fill-rule:nonzero;fill:rgb(0%,0%,0%);fill-opacity:1;" d="M 253.460938 148.800781 C 253.460938 153.179688 253.859375 154.199219 255.460938 154.199219 C 256.796875 154.199219 257.460938 153.601562 257.460938 152.398438 C 257.460938 150.839844 257.996094 150.601562 261.195312 150.601562 C 268.800781 150.601562 272.535156 146.21875 266.53125 144.359375 C 264.933594 143.820312 261.332031 143.398438 258.527344 143.398438 L 253.460938 143.398438 Z M 266.265625 146.519531 C 267.199219 147.960938 264 149.398438 259.863281 149.398438 C 257.996094 149.398438 257.460938 148.921875 257.460938 147.300781 C 257.460938 145.378906 257.730469 145.199219 261.332031 145.199219 C 264.265625 145.199219 265.597656 145.558594 266.265625 146.519531 Z M 266.265625 146.519531 "/>
<path style=" stroke:none;fill-rule:nonzero;fill:rgb(0%,0%,0%);fill-opacity:1;" d="M 271.734375 143.820312 C 271.203125 144 270.800781 146.460938 270.800781 149.21875 L 270.800781 154.199219 L 278.140625 154.199219 C 282.140625 154.199219 285.476562 153.898438 285.476562 153.601562 C 285.476562 153.238281 283.074219 153 280.140625 153 C 275.070312 153 274.804688 152.878906 274.804688 151.199219 C 274.804688 149.519531 275.070312 149.398438 280.140625 149.398438 C 283.074219 149.398438 285.476562 149.101562 285.476562 148.800781 C 285.476562 148.441406 283.074219 148.199219 280.140625 148.199219 C 275.335938 148.199219 274.804688 148.019531 274.804688 146.699219 C 274.804688 145.320312 275.335938 145.199219 280.140625 145.199219 C 284.007812 145.199219 285.476562 144.960938 285.476562 144.300781 C 285.476562 143.640625 283.875 143.398438 279.074219 143.398438 C 275.472656 143.398438 272.136719 143.578125 271.734375 143.820312 Z M 271.734375 143.820312 "/>
<path style=" stroke:none;fill-rule:nonzero;fill:rgb(0%,0%,0%);fill-opacity:1;" d="M 286.808594 144.300781 C 286.808594 144.839844 288.011719 145.199219 290.144531 145.199219 C 293.347656 145.199219 293.480469 145.320312 293.480469 149.699219 C 293.480469 152.28125 294.011719 154.199219 294.8125 154.199219 C 295.613281 154.199219 296.148438 152.339844 296.148438 149.761719 C 296.148438 145.441406 296.28125 145.261719 299.484375 145.078125 C 306.152344 144.71875 303.351562 143.699219 295.214844 143.519531 C 288.277344 143.398438 286.808594 143.519531 286.808594 144.300781 Z M 286.808594 144.300781 "/>
<path style=" stroke:none;fill-rule:nonzero;fill:rgb(0%,0%,0%);fill-opacity:1;" d="M 317.492188 148.738281 L 317.492188 154.199219 L 323.628906 154.199219 C 328.5625 154.199219 330.433594 153.898438 333.632812 152.460938 C 341.636719 148.800781 336.96875 144.238281 324.5625 143.578125 L 317.492188 143.21875 Z M 331.367188 146.160156 C 333.898438 147.300781 334.167969 150.78125 331.765625 151.679688 C 330.832031 152.101562 327.898438 152.460938 325.363281 152.519531 L 320.828125 152.699219 L 320.425781 148.921875 L 320.027344 145.199219 L 324.695312 145.199219 C 327.230469 145.199219 330.296875 145.621094 331.367188 146.160156 Z M 331.367188 146.160156 "/>
<path style=" stroke:none;fill-rule:nonzero;fill:rgb(0%,0%,0%);fill-opacity:1;" d="M 338.167969 144.058594 C 337.636719 144.421875 338.4375 144.839844 340.035156 145.019531 C 342.4375 145.320312 342.839844 145.800781 342.839844 148.921875 C 342.839844 151.980469 342.4375 152.578125 340.171875 152.820312 C 335.367188 153.359375 337.367188 154.199219 343.503906 154.199219 C 349.375 154.199219 351.507812 153.480469 347.507812 152.761719 C 346.039062 152.519531 345.507812 151.5 345.507812 148.800781 C 345.507812 145.980469 345.90625 145.199219 347.507812 145.199219 C 348.574219 145.199219 349.507812 144.78125 349.507812 144.300781 C 349.507812 143.21875 339.503906 142.980469 338.167969 144.058594 Z M 338.167969 144.058594 "/>
<path style=" stroke:none;fill-rule:nonzero;fill:rgb(0%,0%,0%);fill-opacity:1;" d="M 357.914062 144.121094 C 356.3125 144.480469 354.042969 145.679688 352.84375 146.820312 C 350.84375 148.679688 350.84375 148.980469 353.109375 151.078125 C 357.113281 154.738281 366.984375 155.28125 371.652344 152.101562 C 374.453125 150.179688 372.851562 149.28125 369.785156 150.960938 C 366.714844 152.640625 363.25 153.121094 359.78125 152.28125 C 355.910156 151.378906 354.84375 150.660156 354.84375 148.738281 C 354.84375 145.441406 363.382812 144.121094 369.117188 146.519531 C 370.851562 147.238281 372.585938 147.660156 372.988281 147.480469 C 374.585938 146.761719 370.71875 144.71875 366.714844 144.058594 C 361.78125 143.28125 361.78125 143.28125 357.914062 144.121094 Z M 357.914062 144.121094 "/>
<path style=" stroke:none;fill-rule:nonzero;fill:rgb(0%,0%,0%);fill-opacity:1;" d="M 374.855469 144.300781 C 374.855469 144.839844 376.1875 145.199219 378.1875 145.199219 C 381.390625 145.199219 381.523438 145.320312 381.523438 149.699219 C 381.523438 153.300781 381.925781 154.199219 383.523438 154.199219 C 385.125 154.199219 385.527344 153.300781 385.527344 149.761719 C 385.527344 145.378906 385.527344 145.320312 389.261719 145.078125 C 396.730469 144.601562 397.53125 144.960938 397.53125 148.921875 C 397.53125 151.980469 397.132812 152.578125 394.863281 152.820312 C 390.0625 153.359375 392.0625 154.199219 398.199219 154.199219 C 404.070312 154.199219 406.203125 153.480469 402.199219 152.761719 C 400.734375 152.519531 400.199219 151.5 400.199219 148.800781 C 400.199219 145.980469 400.601562 145.199219 402.199219 145.199219 C 403.269531 145.199219 404.203125 144.839844 404.203125 144.359375 C 404.203125 143.640625 401.402344 143.460938 389.527344 143.460938 C 377.386719 143.398438 374.855469 143.578125 374.855469 144.300781 Z M 374.855469 144.300781 "/>
<path style=" stroke:none;fill-rule:nonzero;fill:rgb(0%,0%,0%);fill-opacity:1;" d="M 412.074219 144.300781 C 404.867188 146.039062 404.070312 150.71875 410.472656 153 C 422.34375 157.140625 436.21875 149.941406 425.679688 145.140625 C 421.410156 143.21875 417.410156 142.980469 412.074219 144.300781 Z M 424.210938 146.398438 C 427.8125 148.019531 427.546875 149.761719 423.546875 151.5 C 419.941406 153.179688 418.609375 153.300781 414.472656 152.339844 C 410.738281 151.441406 409.539062 150.660156 409.539062 148.859375 C 409.539062 145.558594 418.875 144 424.210938 146.398438 Z M 424.210938 146.398438 "/>
<path style=" stroke:none;fill-rule:nonzero;fill:rgb(0%,0%,0%);fill-opacity:1;" d="M 432.214844 148.800781 C 432.214844 154.921875 434.484375 156.238281 435.152344 150.421875 L 435.550781 146.699219 L 441.289062 150.421875 C 444.355469 152.519531 447.558594 154.199219 448.222656 154.199219 C 449.023438 154.199219 449.558594 151.859375 449.558594 148.800781 C 449.558594 145.621094 449.023438 143.398438 448.222656 143.398438 C 447.421875 143.398438 446.890625 145.019531 446.890625 147.058594 C 446.890625 151.378906 445.824219 151.261719 438.886719 146.339844 C 436.484375 144.71875 434.082031 143.398438 433.417969 143.398438 C 432.75 143.398438 432.214844 145.800781 432.214844 148.800781 Z M 432.214844 148.800781 "/>
<path style=" stroke:none;fill-rule:nonzero;fill:rgb(0%,0%,0%);fill-opacity:1;" d="M 455.292969 148.378906 C 452.894531 151.078125 450.890625 153.539062 450.890625 153.78125 C 450.890625 154.800781 453.695312 154.078125 454.894531 152.699219 C 455.960938 151.5 457.027344 151.199219 460.628906 151.199219 C 464.097656 151.199219 465.433594 151.558594 466.632812 152.699219 C 468.5 154.5 471.4375 154.738281 470.234375 152.941406 C 467.96875 149.699219 461.964844 143.761719 460.761719 143.578125 C 460.097656 143.460938 457.5625 145.621094 455.292969 148.378906 Z M 462.898438 148.621094 C 462.898438 149.039062 461.699219 149.398438 460.230469 149.398438 C 457.960938 149.398438 457.828125 149.21875 459.164062 147.898438 C 460.230469 146.761719 461.03125 146.578125 461.832031 147.121094 C 462.363281 147.539062 462.898438 148.261719 462.898438 148.621094 Z M 462.898438 148.621094 "/>
<path style=" stroke:none;fill-rule:nonzero;fill:rgb(0%,0%,0%);fill-opacity:1;" d="M 472.234375 148.800781 C 472.234375 151.980469 472.769531 154.199219 473.570312 154.199219 C 474.371094 154.199219 474.902344 152.28125 474.902344 149.640625 L 474.902344 145.140625 L 479.304688 145.320312 C 482.90625 145.441406 483.574219 145.738281 483.574219 147 C 483.574219 148.199219 482.773438 148.558594 479.972656 148.679688 C 477.839844 148.800781 476.238281 149.039062 476.238281 149.160156 C 476.238281 149.878906 485.042969 154.199219 486.644531 154.199219 C 489.042969 154.199219 488.644531 153.539062 485.308594 151.980469 L 482.507812 150.601562 L 485.441406 149.160156 C 491.3125 146.339844 486.511719 143.398438 476.105469 143.398438 L 472.234375 143.398438 Z M 472.234375 148.800781 "/>
<path style=" stroke:none;fill-rule:nonzero;fill:rgb(0%,0%,0%);fill-opacity:1;" d="M 488.242188 143.699219 C 488.242188 143.878906 490.113281 145.320312 492.246094 146.878906 C 494.78125 148.738281 496.246094 150.660156 496.246094 152.039062 C 496.246094 153.539062 496.78125 154.199219 498.25 154.199219 C 499.714844 154.199219 500.25 153.539062 500.25 151.621094 C 500.25 150.179688 500.785156 148.800781 501.316406 148.441406 C 501.984375 148.140625 503.851562 146.878906 505.453125 145.621094 C 509.722656 142.5 505.984375 142.679688 501.449219 145.859375 L 497.980469 148.261719 L 494.515625 145.859375 C 491.445312 143.761719 488.242188 142.679688 488.242188 143.699219 Z M 488.242188 143.699219 "/>
</g>
</svg>
